<svg width="22" height="22" viewBox="0 0 22 22" fill="none" xmlns="http://www.w3.org/2000/svg">
<path d="M18.4395 3.55372L18.4413 3.55549C20.4144 5.51868 21.5 8.13013 21.5 10.912C21.5 16.6395 16.8066 21.313 11.0442 21.313C9.2929 21.313 7.57272 20.8721 6.04231 20.0424L5.86863 19.9483L5.6775 19.9983L0.710758 21.2973L2.03 16.478L2.08503 16.277L1.98096 16.0964C1.07347 14.5215 0.588442 12.7374 0.588442 10.901C0.588442 5.17355 5.28181 0.500066 11.0442 0.500069L11.046 0.500063C12.4206 0.495298 13.7823 0.762917 15.0517 1.28725C16.3212 1.81158 17.4728 2.58209 18.4395 3.55372ZM6.1447 19.1293L6.1477 19.1311C7.628 20.0009 9.31839 20.465 11.0442 20.465C16.3351 20.465 20.6539 16.1864 20.6317 10.9119C20.6361 9.6549 20.3899 8.40954 19.9073 7.24798C19.4246 6.08624 18.7152 5.0315 17.8202 4.14479C16.0125 2.33505 13.597 1.33706 11.0332 1.33706C5.74029 1.33706 1.42362 5.62854 1.42362 10.901L1.42362 10.9014C1.42495 12.6998 1.93434 14.4615 2.89342 15.9853L2.89338 15.9854L2.89706 15.991L2.99618 16.1439L2.13792 19.2717L1.90876 20.1068L2.7466 19.8877L5.99304 19.0388L6.1447 19.1293ZM7.93311 10.5633L7.93679 10.5698L7.94067 10.5762C8.11001 10.857 8.68398 11.8042 9.56242 12.5838C10.5183 13.4337 11.3718 13.7968 11.7419 13.9542C11.7966 13.9774 11.8407 13.9962 11.873 14.0114C12.0432 14.0985 12.2581 14.1779 12.4959 14.1505C12.7573 14.1203 12.9431 13.975 13.0713 13.8222C13.2245 13.6476 13.7212 13.0599 13.9417 12.7479C13.9577 12.753 13.9754 12.7589 13.9958 12.7659C14.1835 12.8447 14.9287 13.2059 15.4254 13.4467C15.6027 13.5327 15.7484 13.6033 15.8257 13.6402C15.8842 13.6682 15.939 13.6933 15.9855 13.7146C15.9972 13.72 16.0084 13.7251 16.019 13.73C16.0551 13.7466 16.0835 13.7599 16.107 13.7715C16.1074 13.8087 16.1059 13.8551 16.1013 13.9102C16.0857 14.095 16.0374 14.3459 15.9362 14.624L15.9361 14.624L15.9336 14.6313C15.8804 14.7847 15.6744 15.0126 15.3296 15.2332C14.9983 15.4451 14.6608 15.5727 14.4893 15.598C14.0486 15.6591 13.5374 15.683 12.9877 15.5069L12.9878 15.5068L12.9806 15.5046C12.5932 15.3869 12.1049 15.2284 11.4772 14.9531L11.4736 14.9516C8.99641 13.8881 7.30899 11.4438 7.03654 11.0491C7.02389 11.0308 7.01429 11.0169 7.0078 11.0077L7.00362 11.0018L6.99928 10.9961L6.99722 10.9933C6.93272 10.9078 6.67727 10.569 6.43727 10.0989C6.19098 9.61653 5.98342 9.03882 5.98342 8.48104C5.98342 7.43956 6.47037 6.90643 6.74205 6.60899C6.76442 6.5845 6.78533 6.56161 6.80439 6.54016C6.94794 6.38679 7.09196 6.36305 7.16382 6.36305H7.68074C7.70757 6.36433 7.73258 6.3646 7.74798 6.36477C7.74997 6.3648 7.7518 6.36482 7.75345 6.36484C7.75802 6.36489 7.76207 6.36495 7.76567 6.36501C7.78352 6.38895 7.81355 6.43701 7.85108 6.5261C8.06759 7.06454 8.62872 8.42877 8.707 8.58455C8.71547 8.60139 8.72028 8.61295 8.72302 8.62067C8.71896 8.62875 8.71503 8.63659 8.71121 8.64421C8.63113 8.80389 8.60039 8.86517 8.52068 8.9577C8.46222 9.02556 8.40949 9.08911 8.36103 9.14752C8.27607 9.24991 8.20425 9.33646 8.13778 9.4026C8.13491 9.40546 8.13181 9.40852 8.12851 9.41178C8.06311 9.47649 7.91957 9.61849 7.84745 9.81818C7.75523 10.0735 7.80202 10.3303 7.93311 10.5633ZM16.0996 13.6767C16.0997 13.6766 16.1003 13.6789 16.1012 13.684C16.1 13.6794 16.0995 13.6769 16.0996 13.6767ZM7.74756 6.3443C7.74758 6.34423 7.74838 6.34484 7.74992 6.34634C7.74831 6.34511 7.74754 6.34436 7.74756 6.3443Z" fill="#27625F" stroke="#27625F"/>
</svg>
