<svg width="15" height="15" viewBox="0 0 15 15" fill="none" xmlns="http://www.w3.org/2000/svg">
<path d="M3.16242 10.7933L0 13.9557L1.04427 15L4.20669 11.8376C5.34378 12.7473 6.78584 13.2915 8.35424 13.2915C12.0227 13.2915 15 10.3142 15 6.64576C15 2.9773 12.0227 0 8.35424 0C4.68578 0 1.70848 2.9773 1.70848 6.64576C1.70848 8.21416 2.25269 9.65622 3.16242 10.7933ZM4.64391 10.2454C3.74097 9.31485 3.18531 8.04551 3.18531 6.64576C3.18531 3.78993 5.49841 1.47684 8.35424 1.47684C11.2101 1.47684 13.5232 3.78993 13.5232 6.64576C13.5232 9.50159 11.2101 11.8147 8.35424 11.8147C6.95449 11.8147 5.68515 11.259 4.7546 10.3561L4.64391 10.2454Z" fill="#27625F"/>
</svg>
