<svg width="28" height="29" viewBox="0 0 28 29" fill="none" xmlns="http://www.w3.org/2000/svg">
<path d="M14.0644 25.6256C20.209 25.6256 25.1901 20.6445 25.1901 14.4999C25.1901 8.35535 20.209 3.3742 14.0644 3.3742C7.9198 3.3742 2.93865 8.35535 2.93865 14.4999C2.93865 20.6445 7.9198 25.6256 14.0644 25.6256ZM14.0644 28.4071C6.38366 28.4071 0.157227 22.1806 0.157227 14.4999C0.157227 6.81921 6.38366 0.592773 14.0644 0.592773C21.745 0.592773 27.9715 6.81921 27.9715 14.4999C27.9715 22.1806 21.745 28.4071 14.0644 28.4071ZM9.73945 16.1282L6.26538 15.0438C5.51452 14.8135 5.51005 14.2969 6.4335 13.9257L19.9694 8.69722C20.7544 8.37582 21.2008 8.78188 20.9463 9.79431L18.6408 20.6715C18.4803 21.4453 18.0136 21.6296 17.3672 21.2724L13.8196 18.6474L12.1662 20.2431C11.9963 20.4071 11.858 20.548 11.5977 20.5833C11.3372 20.6185 11.1225 20.5415 10.9664 20.1096L9.75704 16.117L9.73945 16.1282Z" fill="white"/>
</svg>
