<svg width="29" height="18" viewBox="0 0 29 18" fill="none" xmlns="http://www.w3.org/2000/svg">
<path d="M27.7349 0.683582C27.7127 0.927373 27.6451 1.16823 27.5826 1.40908C27.1126 3.20961 26.222 4.79964 25.0056 6.2242C24.0767 7.31294 23.0096 8.25188 21.762 8.98913C21.7398 9.00186 21.7196 9.01948 21.6722 9.05473C23.4383 9.90457 24.9189 11.0746 26.1554 12.5363C27.395 14.002 28.2664 15.6528 28.7858 17.4797C28.7011 17.5208 28.6265 17.5042 28.5539 17.5042C27.0672 17.5052 25.5805 17.5052 24.0938 17.5042C23.8145 17.5042 23.872 17.5375 23.7852 17.2937C23.293 15.922 22.5416 14.7079 21.4695 13.6887C20.2723 12.5501 18.8511 11.8294 17.197 11.5484C17.0568 11.525 16.9146 11.5122 16.7734 11.4946C16.6978 11.4848 16.6564 11.5093 16.6605 11.5896C16.6625 11.6424 16.6605 11.6953 16.6605 11.7472C16.6605 13.5859 16.6605 15.4237 16.6605 17.2624C16.6605 17.5404 16.6837 17.5013 16.4093 17.5042C15.4784 17.514 14.5505 17.467 13.6276 17.3466C11.3038 17.0421 9.14943 16.3068 7.23713 14.9635C5.78677 13.9452 4.62385 12.6715 3.69997 11.1872C2.76601 9.68624 2.13261 8.06684 1.70194 6.36911C1.34893 4.97881 1.13612 3.566 1.04232 2.13752C1.01408 1.70378 0.993904 1.26907 0.973732 0.834361C0.965664 0.658126 0.971715 0.655189 1.14217 0.655189C2.61472 0.655189 4.08829 0.655189 5.56084 0.655189C5.73028 0.655189 5.72928 0.658126 5.73432 0.834361C5.77063 2.068 5.88863 3.29186 6.13877 4.50298C6.46253 6.07049 6.97893 7.5675 7.84532 8.93724C8.51805 10.0005 9.35821 10.912 10.4505 11.5886C10.9215 11.8804 11.4228 12.1104 11.9604 12.2642C12.0249 12.2828 12.0875 12.3082 12.1581 12.3004C12.1894 12.223 12.1742 12.1428 12.1742 12.0654C12.1742 8.34881 12.1742 4.6332 12.1752 0.916603C12.1752 0.622879 12.1309 0.65421 12.4455 0.65323C13.7688 0.652251 15.0931 0.652251 16.4164 0.65323C16.6877 0.65323 16.6585 0.623858 16.6585 0.881356C16.6585 2.9433 16.6585 5.00623 16.6585 7.06817C16.6585 7.3198 16.6585 7.31784 16.9096 7.27672C17.7921 7.13181 18.5708 6.75682 19.2909 6.25749C20.4357 5.46542 21.3343 4.45207 22.0645 3.29283C22.5557 2.51446 22.943 1.69008 23.2133 0.814779C23.2628 0.65323 23.2648 0.652251 23.4322 0.652251C24.8099 0.652251 26.1877 0.652251 27.5664 0.652251C27.6189 0.652251 27.6754 0.639523 27.7339 0.680645L27.7349 0.683582Z" fill="white"/>
</svg>
