<svg width="29" height="29" viewBox="0 0 29 29" fill="none" xmlns="http://www.w3.org/2000/svg">
<path d="M23.8051 4.93707L23.8066 4.93856C26.3408 7.46013 27.7358 10.8155 27.7358 14.3887C27.7358 21.7472 21.7066 27.7492 14.3059 27.7492C12.0564 27.7492 9.84716 27.1829 7.88168 26.1174L7.73529 26.038L7.5742 26.0802L0.941963 27.8148L2.70615 21.3701L2.75254 21.2006L2.66483 21.0484C1.49926 19.0256 0.87614 16.7339 0.87614 14.3748C0.87614 7.01625 6.90524 1.01428 14.3059 1.01429L14.3074 1.01428C16.0731 1.00816 17.8223 1.35193 19.453 2.02547C21.0837 2.69901 22.5631 3.68882 23.8051 4.93707ZM8.21956 24.5968L8.22209 24.5983C10.0615 25.6791 12.1618 26.2557 14.3059 26.2557C20.8807 26.2557 26.2446 20.9387 26.2165 14.3884C26.2221 12.827 25.9163 11.28 25.3168 9.83713C24.7173 8.394 23.8359 7.08374 22.7239 5.9822C20.4782 3.73372 17.4779 2.49391 14.292 2.49391C7.71564 2.49391 2.35347 7.82623 2.35347 14.3748L2.35347 14.3751C2.35512 16.6091 2.98788 18.7975 4.17934 20.6906L4.1793 20.6906L4.1824 20.6954L4.35913 20.9679L3.24904 25.0135L3.05589 25.7174L3.76207 25.5327L7.95197 24.437L8.21956 24.5968ZM10.5562 13.8444L10.5561 13.8445L10.5626 13.8553C10.7752 14.2079 11.4872 15.3816 12.5723 16.3447C13.7523 17.3939 14.7983 17.8396 15.2704 18.0409C15.3435 18.072 15.4028 18.0973 15.4468 18.1181C15.6479 18.2213 15.8759 18.3015 16.1171 18.2737C16.378 18.2436 16.5684 18.0987 16.7088 17.9308C16.9076 17.7043 17.5697 16.9203 17.824 16.5495C17.8587 16.5013 17.8812 16.4823 17.8895 16.4763C17.8969 16.4763 17.9138 16.4775 17.9449 16.4844C17.9873 16.4939 18.0388 16.51 18.1124 16.5354C18.3488 16.6338 19.3192 17.1042 19.9516 17.4107C20.1702 17.5167 20.3484 17.6031 20.4419 17.6478C20.5288 17.6892 20.5976 17.7207 20.6559 17.7473C20.7332 17.7827 20.7919 17.8095 20.8491 17.8398C20.8778 17.855 20.8971 17.8667 20.9096 17.8751C20.9107 17.883 20.9118 17.8925 20.9129 17.9037C20.9192 17.9711 20.9201 18.0701 20.9095 18.1969C20.8882 18.4494 20.823 18.7849 20.6888 19.1538L20.6887 19.1538L20.6866 19.1599C20.5952 19.4236 20.283 19.7444 19.8374 20.0294C19.4032 20.3071 18.9475 20.4842 18.6913 20.5217C18.1195 20.601 17.437 20.6351 16.6988 20.3985L16.6988 20.3985L16.6928 20.3967C16.1986 20.2464 15.5727 20.0433 14.7687 19.6907L14.7657 19.6895C11.5733 18.319 9.4084 15.1788 9.06659 14.6831C9.05075 14.6601 9.03883 14.6428 9.0309 14.6316L9.03104 14.6315L9.02371 14.6218L9.02108 14.6183C8.93719 14.507 8.60556 14.0671 8.29378 13.4565C7.97554 12.8332 7.69693 12.0681 7.69693 11.3152C7.69693 9.9157 8.36105 9.18927 8.71001 8.80757C8.73895 8.77592 8.76571 8.74664 8.78976 8.71954C9.01796 8.47449 9.26038 8.42677 9.40001 8.42677H10.0587C10.0898 8.42838 10.1199 8.42872 10.141 8.42896C10.1435 8.42899 10.1458 8.42902 10.1481 8.42905C10.1768 8.4294 10.1948 8.42983 10.2111 8.43104C10.2397 8.43317 10.2492 8.437 10.2543 8.43944L10.2544 8.43949C10.2591 8.44171 10.3457 8.48248 10.4638 8.76348C10.7394 9.44898 11.4454 11.1645 11.5393 11.3515C11.5696 11.4117 11.5811 11.4507 11.5841 11.4795C11.5864 11.5013 11.5857 11.5304 11.5646 11.5764C11.5568 11.5919 11.5493 11.6069 11.542 11.6213C11.4432 11.8186 11.3934 11.9181 11.2751 12.0554C11.2084 12.1328 11.1451 12.2091 11.0849 12.2816C10.9722 12.4173 10.8708 12.5394 10.78 12.6297C10.7772 12.6325 10.7743 12.6354 10.7713 12.6384C10.6881 12.721 10.537 12.8709 10.4625 13.0773C10.3714 13.3296 10.4131 13.5901 10.5562 13.8444Z" fill="white" stroke="white" stroke-width="0.842857"/>
</svg>
