<svg width="17" height="17" viewBox="0 0 17 17" fill="none" xmlns="http://www.w3.org/2000/svg">
<path d="M17 12.6744V16.0141C17 16.5099 16.6166 16.9213 16.1221 16.9563C15.709 16.9855 15.3721 17 15.1111 17C6.76543 17 0 10.2346 0 1.88889C0 1.62795 0.0145917 1.29093 0.043775 0.877861C0.0787383 0.383331 0.49011 0 0.985868 0H4.32565C4.56807 0 4.77111 0.183619 4.79544 0.424811C4.8173 0.641344 4.83761 0.815188 4.8564 0.946352C5.04744 2.28057 5.43767 3.55051 5.99599 4.72508C6.08561 4.91361 6.02717 5.13928 5.8573 5.26061L3.81891 6.7167C5.05988 9.61548 7.38452 11.9401 10.2833 13.1811L11.7367 11.1462C11.8596 10.9743 12.0879 10.9152 12.2787 11.0058C13.4532 11.5637 14.723 11.9535 16.0571 12.144C16.1874 12.1627 16.3601 12.1829 16.5752 12.2046C16.8164 12.2289 17 12.432 17 12.6744Z" fill="#27625F"/>
</svg>
