<svg width="33" height="34" viewBox="0 0 33 34" fill="none" xmlns="http://www.w3.org/2000/svg">
<path d="M16.5 30.2C23.7902 30.2 29.7 24.2902 29.7 17C29.7 9.70984 23.7902 3.8 16.5 3.8C9.20983 3.8 3.3 9.70984 3.3 17C3.3 24.2902 9.20983 30.2 16.5 30.2ZM16.5 33.5C7.38729 33.5 0 26.1126 0 17C0 7.8873 7.38729 0.5 16.5 0.5C25.6126 0.5 33 7.8873 33 17C33 26.1126 25.6126 33.5 16.5 33.5ZM11.3687 18.9318L7.24696 17.6453C6.35611 17.3721 6.35081 16.7591 7.44643 16.3187L23.5059 10.1154C24.4373 9.73413 24.967 10.2159 24.665 11.4171L21.9297 24.3222C21.7393 25.2403 21.1855 25.4589 20.4186 25.0352L16.2096 21.9208L14.2479 23.814C14.0463 24.0085 13.8823 24.1757 13.5734 24.2176C13.2644 24.2593 13.0097 24.1679 12.8244 23.6556L11.3896 18.9186L11.3687 18.9318Z" fill="#6A6A6A"/>
</svg>
