<svg width="34" height="20" viewBox="0 0 34 20" fill="none" xmlns="http://www.w3.org/2000/svg">
<path d="M32.2531 0.0393796C32.2268 0.328624 32.1466 0.614383 32.0724 0.900142C31.5148 3.03636 30.4581 4.92284 29.015 6.613C27.9129 7.90472 26.6468 9.01872 25.1666 9.89342C25.1403 9.90852 25.1163 9.92943 25.0601 9.97125C27.1554 10.9795 28.9121 12.3677 30.3792 14.102C31.8498 15.8409 32.8837 17.7994 33.5 19.967C33.3995 20.0158 33.3109 19.996 33.2248 19.996C31.4609 19.9972 29.6971 19.9972 27.9332 19.996C27.6017 19.996 27.67 20.0355 27.567 19.7463C26.9831 18.1189 26.0916 16.6785 24.8196 15.4692C23.3991 14.1182 21.7131 13.2633 19.7506 12.9299C19.5842 12.902 19.4155 12.8869 19.248 12.866C19.1582 12.8544 19.1092 12.8834 19.114 12.9787C19.1164 13.0414 19.114 13.1041 19.114 13.1657C19.114 15.3472 19.114 17.5276 19.114 19.7091C19.114 20.039 19.1415 19.9926 18.816 19.996C17.7115 20.0077 16.6106 19.9519 15.5157 19.809C12.7586 19.4478 10.2026 18.5754 7.93373 16.9816C6.21296 15.7736 4.83323 14.2623 3.73711 12.5013C2.62901 10.7205 1.87752 8.79917 1.36656 6.78492C0.947731 5.13542 0.69524 3.4592 0.583952 1.76439C0.550446 1.24979 0.526513 0.73403 0.50258 0.218269C0.493007 0.00917742 0.500187 0.00569255 0.70242 0.00569255C2.44952 0.00569255 4.19781 0.00569255 5.94491 0.00569255C6.14595 0.00569255 6.14475 0.00917742 6.15073 0.218269C6.19381 1.68191 6.33382 3.13394 6.63059 4.57087C7.01471 6.43062 7.62739 8.20675 8.65531 9.83185C9.45347 11.0934 10.4503 12.1748 11.7462 12.9775C12.3051 13.3237 12.8998 13.5967 13.5376 13.779C13.6142 13.8011 13.6884 13.8313 13.7722 13.822C13.8092 13.7303 13.7913 13.635 13.7913 13.5432C13.7913 9.13372 13.7913 4.72536 13.7925 0.315846C13.7925 -0.032641 13.7398 0.00453093 14.1132 0.00336931C15.6832 0.00220768 17.2544 0.00220768 18.8244 0.00336931C19.1463 0.00336931 19.1116 -0.0314794 19.1116 0.274027C19.1116 2.7204 19.1116 5.16794 19.1116 7.61432C19.1116 7.91285 19.1116 7.91053 19.4095 7.86174C20.4566 7.68982 21.3804 7.24492 22.2348 6.65249C23.593 5.71274 24.6592 4.51046 25.5256 3.1351C26.1083 2.21161 26.5679 1.23353 26.8886 0.195037C26.9472 0.0033693 26.9496 0.00220768 27.1482 0.00220768C28.7828 0.00220768 30.4174 0.00220768 32.0533 0.00220768C32.1155 0.00220768 32.1825 -0.0128934 32.2519 0.0358947L32.2531 0.0393796Z" fill="#6A6A6A"/>
</svg>
